# xmcd
#
# Track frame offsets: 
#        150
#        25869
#        48508
#        62675
#        80385
#        92356
#        111323
#        127929
#        142218
#        159466
#        174329
#        187119
#        196191
#        213670
#
# Disc length: 2991 seconds
#
# Revision: 0
# Processed by: cddbd v1.5.2PL0 Copyright (c) Steve Scherf et al.
# Submitted via: ExactAudioCopyFreeDBPlugin 1.0
#
DISCID=c00bad0e
DTITLE=Trond Granlund - 50 år på veien Vol 2 CD3
DYEAR=2016
DGENRE=Country
TTITLE0=Pleasure And Tears
TTITLE1=Texas Field
TTITLE2=Cry Cry Cry
TTITLE3=Muddy Rio Grande
TTITLE4=Bayou Pom Pom
TTITLE5=Cajun Ceili
TTITLE6=Remember Me
TTITLE7=Do Re Mi
TTITLE8=Old Joe Clark
TTITLE9=Quit Your Lowdown Ways
TTITLE10=Till The Song Is Gone
TTITLE11=Crying Time
TTITLE12=Orange Blossom Special
TTITLE13=Foggy Mountain Breakdown
EXTD=
EXTT0=
EXTT1=
EXTT2=
EXTT3=
EXTT4=
EXTT5=
EXTT6=
EXTT7=
EXTT8=
EXTT9=
EXTT10=
EXTT11=
EXTT12=
EXTT13=
PLAYORDER=
